<svg width="1600" height="920" viewBox="0 0 1600 920" fill="none" xmlns="http://www.w3.org/2000/svg">
  <rect width="1600" height="920" rx="30" fill="#050816"/>
  <text x="40" y="60" fill="#FFFFFF" font-family="Arial, sans-serif" font-size="34" font-weight="700">Tasks + Kanban Combined Flow</text>
  <text x="40" y="92" fill="#93A9CD" font-family="Arial, sans-serif" font-size="18">Create task popup, board movement, and task detail drawer in one board.</text>

  <rect x="36" y="130" width="420" height="344" rx="26" fill="#081225" stroke="#6D4AFF" stroke-opacity="0.55"/>
  <text x="62" y="172" fill="#FFFFFF" font-family="Arial, sans-serif" font-size="28" font-weight="700">Create Task Popup</text>
  <g font-family="Arial, sans-serif" font-size="18">
    <rect x="62" y="196" width="368" height="40" rx="14" fill="#0D1B33"/><text x="78" y="221" fill="#D8E6FF">Task Name: Student Module</text>
    <rect x="62" y="248" width="176" height="40" rx="14" fill="#0D1B33"/><text x="78" y="273" fill="#D8E6FF">Module</text>
    <rect x="254" y="248" width="176" height="40" rx="14" fill="#0D1B33"/><text x="270" y="273" fill="#D8E6FF">Assigned Developer</text>
    <rect x="62" y="300" width="176" height="40" rx="14" fill="#0D1B33"/><text x="78" y="325" fill="#D8E6FF">Priority: High</text>
    <rect x="254" y="300" width="176" height="40" rx="14" fill="#0D1B33"/><text x="270" y="325" fill="#D8E6FF">Deadline: 23 May</text>
    <rect x="62" y="352" width="368" height="58" rx="14" fill="#0D1B33"/><text x="78" y="385" fill="#D8E6FF">Description, attachments, estimated hours...</text>
    <rect x="270" y="424" width="160" height="32" rx="12" fill="#6D4AFF"/><text x="308" y="446" fill="#FFFFFF">Save Task</text>
  </g>

  <rect x="480" y="130" width="1084" height="500" rx="26" fill="#081225" stroke="#183259"/>
  <text x="506" y="172" fill="#FFFFFF" font-family="Arial, sans-serif" font-size="28" font-weight="700">Kanban Board</text>
  <g font-family="Arial, sans-serif">
    <rect x="506" y="194" width="162" height="402" rx="20" fill="#0B1730"/><text x="534" y="226" fill="#FFFFFF" font-size="22">Backlog</text>
    <rect x="684" y="194" width="162" height="402" rx="20" fill="#0B1730"/><text x="724" y="226" fill="#FFFFFF" font-size="22">To Do</text>
    <rect x="862" y="194" width="162" height="402" rx="20" fill="#0B1730"/><text x="884" y="226" fill="#FFFFFF" font-size="22">In Progress</text>
    <rect x="1040" y="194" width="162" height="402" rx="20" fill="#0B1730"/><text x="1076" y="226" fill="#FFFFFF" font-size="22">Testing</text>
    <rect x="1218" y="194" width="162" height="402" rx="20" fill="#0B1730"/><text x="1246" y="226" fill="#FFFFFF" font-size="22">Completed</text>
    <rect x="1396" y="194" width="142" height="402" rx="20" fill="#21131B"/><text x="1424" y="226" fill="#FFFFFF" font-size="22">Blocked</text>

    <rect x="696" y="252" width="138" height="112" rx="18" fill="#101D37" stroke="#2B5BFF"/><text x="710" y="278" fill="#FFFFFF" font-size="18">Login Module</text><text x="710" y="304" fill="#8EA6CD" font-size="14">Assignee: Amit</text><text x="710" y="328" fill="#8EA6CD" font-size="14">Priority: High</text><text x="710" y="352" fill="#55C6FF" font-size="14">Drag -> In Progress</text>
    <rect x="874" y="252" width="138" height="112" rx="18" fill="#101D37" stroke="#06B6D4"/><text x="888" y="278" fill="#FFFFFF" font-size="18">Dashboard UI</text><text x="888" y="304" fill="#8EA6CD" font-size="14">Progress: 70%</text><text x="888" y="328" fill="#8EA6CD" font-size="14">Comments: 4</text><text x="888" y="352" fill="#55C6FF" font-size="14">Click -> Drawer</text>
    <rect x="1052" y="252" width="138" height="112" rx="18" fill="#101D37" stroke="#F59E0B"/><text x="1066" y="278" fill="#FFFFFF" font-size="18">Fee Module QA</text><text x="1066" y="304" fill="#8EA6CD" font-size="14">Attachments: 2</text><text x="1066" y="328" fill="#8EA6CD" font-size="14">Priority: Medium</text><text x="1066" y="352" fill="#F7C948" font-size="14">Move -> Completed</text>
    <rect x="1230" y="252" width="138" height="112" rx="18" fill="#102216" stroke="#22C55E"/><text x="1244" y="278" fill="#FFFFFF" font-size="18">Attendance API</text><text x="1244" y="304" fill="#8EA6CD" font-size="14">Done by Ankit</text><text x="1244" y="328" fill="#8EA6CD" font-size="14">Progress: 100%</text><text x="1244" y="352" fill="#36E0A1" font-size="14">Green glow on hover</text>
    <rect x="1408" y="252" width="118" height="112" rx="18" fill="#25131A" stroke="#EF4444"/><text x="1418" y="278" fill="#FFFFFF" font-size="18">Payroll</text><text x="1418" y="304" fill="#8EA6CD" font-size="14">Blocked by API</text><text x="1418" y="328" fill="#FF7E8D" font-size="14">Warn manager</text>
  </g>

  <path d="M840 314H858" stroke="#55C6FF" stroke-width="4" stroke-linecap="round"/>
  <path d="M1018 314H1036" stroke="#55C6FF" stroke-width="4" stroke-linecap="round"/>

  <rect x="36" y="504" width="420" height="356" rx="26" fill="#081225" stroke="#183259"/>
  <text x="62" y="546" fill="#FFFFFF" font-family="Arial, sans-serif" font-size="28" font-weight="700">Task Detail Drawer</text>
  <g font-family="Arial, sans-serif" font-size="18">
    <text x="62" y="590" fill="#D8E6FF">Task: Login Module</text>
    <text x="62" y="622" fill="#8EA6CD">Assigned To: Amit Joshi</text>
    <text x="62" y="654" fill="#8EA6CD">Priority: High</text>
    <text x="62" y="686" fill="#8EA6CD">Progress: 60%</text>
    <text x="62" y="718" fill="#8EA6CD">Checklist: UI, Validation, API, Testing</text>
    <text x="62" y="750" fill="#8EA6CD">Comments, files, timeline, activity logs visible here</text>
    <text x="62" y="800" fill="#55C6FF">Quick actions: Edit | Move | Comment | Upload | Assign</text>
  </g>

  <rect x="480" y="656" width="1084" height="204" rx="26" fill="#081225" stroke="#183259"/>
  <text x="506" y="698" fill="#FFFFFF" font-family="Arial, sans-serif" font-size="28" font-weight="700">System Flow</text>
  <g font-family="Arial, sans-serif" font-size="20" fill="#AFC0DE">
    <text x="506" y="738">Create Task -> POST /api/tasks/create -> task saved -> notification generated -> board refreshed</text>
    <text x="506" y="776">Drag card To Do -> In Progress -> status update event -> realtime board refresh for team</text>
    <text x="506" y="814">Task click -> detail drawer -> comments, checklist, files, timeline, logs</text>
  </g>
</svg>
