<svg width="1600" height="920" viewBox="0 0 1600 920" fill="none" xmlns="http://www.w3.org/2000/svg">
  <rect width="1600" height="920" rx="30" fill="#050816"/>
  <rect x="24" y="24" width="240" height="872" rx="28" fill="#0B1023" stroke="#6D4AFF" stroke-opacity="0.45"/>
  <text x="52" y="72" fill="#F8FAFC" font-family="Arial, sans-serif" font-size="34" font-weight="700">CRM Pro</text>
  <text x="52" y="102" fill="#8FA3C7" font-family="Arial, sans-serif" font-size="18">Manager Workspace</text>
  <g font-family="Arial, sans-serif" font-size="22">
    <rect x="42" y="134" width="204" height="42" rx="14" fill="#6D4AFF"/><text x="62" y="161" fill="#FFFFFF">Dashboard</text>
    <text x="62" y="210" fill="#A9B7D3">Projects</text>
    <text x="62" y="252" fill="#A9B7D3">Kanban Board</text>
    <text x="62" y="294" fill="#A9B7D3">Tasks</text>
    <text x="62" y="336" fill="#A9B7D3">Meetings</text>
    <text x="62" y="378" fill="#A9B7D3">Files</text>
    <text x="62" y="420" fill="#A9B7D3">Calendar</text>
    <text x="62" y="462" fill="#A9B7D3">Reports</text>
    <text x="62" y="504" fill="#A9B7D3">Automation</text>
  </g>
  <rect x="288" y="24" width="1288" height="78" rx="24" fill="#081225" stroke="#1B355B"/>
  <rect x="330" y="45" width="420" height="36" rx="18" fill="#0D1B33"/>
  <text x="356" y="68" fill="#6E86AC" font-family="Arial, sans-serif" font-size="18">Global Search: projects, tasks, developers, files...</text>
  <rect x="1260" y="44" width="104" height="38" rx="19" fill="#6D4AFF"/>
  <text x="1290" y="68" fill="#FFFFFF" font-family="Arial, sans-serif" font-size="18">+ Create</text>
  <circle cx="1408" cy="63" r="18" fill="#0D1B33"/><circle cx="1460" cy="63" r="18" fill="#0D1B33"/><circle cx="1512" cy="63" r="18" fill="#0D1B33"/>
  <text x="308" y="142" fill="#FFFFFF" font-family="Arial, sans-serif" font-size="34" font-weight="700">Dashboard Control Tower</text>

  <g font-family="Arial, sans-serif">
    <rect x="308" y="170" width="202" height="110" rx="22" fill="#0B1730" stroke="#1A4DFF"/>
    <text x="332" y="204" fill="#9FB4D8" font-size="18">Active Projects</text><text x="332" y="252" fill="#FFFFFF" font-size="42" font-weight="700">24</text><text x="332" y="272" fill="#3EE58D" font-size="18">Click -> Projects Page</text>
    <rect x="526" y="170" width="202" height="110" rx="22" fill="#0B1730" stroke="#1A4DFF"/>
    <text x="550" y="204" fill="#9FB4D8" font-size="18">Pending Tasks</text><text x="550" y="252" fill="#FFFFFF" font-size="42" font-weight="700">58</text><text x="550" y="272" fill="#55C6FF" font-size="18">Click -> Tasks Page</text>
    <rect x="744" y="170" width="202" height="110" rx="22" fill="#102216" stroke="#16A34A"/>
    <text x="768" y="204" fill="#A9D5B7" font-size="18">Completed Tasks</text><text x="768" y="252" fill="#FFFFFF" font-size="42" font-weight="700">164</text><text x="768" y="272" fill="#3EE58D" font-size="18">Green glow on hover</text>
    <rect x="962" y="170" width="202" height="110" rx="22" fill="#25131A" stroke="#EF4444"/>
    <text x="986" y="204" fill="#D9A2AD" font-size="18">Delayed Projects</text><text x="986" y="252" fill="#FFFFFF" font-size="42" font-weight="700">6</text><text x="986" y="272" fill="#FF7E8D" font-size="18">Red pulse risk alert</text>
    <rect x="1180" y="170" width="202" height="110" rx="22" fill="#0B1730" stroke="#06B6D4"/>
    <text x="1204" y="204" fill="#9FB4D8" font-size="18">Team Members</text><text x="1204" y="252" fill="#FFFFFF" font-size="42" font-weight="700">18</text><text x="1204" y="272" fill="#55C6FF" font-size="18">Click -> Workload View</text>
  </g>

  <rect x="308" y="308" width="826" height="316" rx="24" fill="#081225" stroke="#183259"/>
  <text x="336" y="346" fill="#FFFFFF" font-family="Arial, sans-serif" font-size="28" font-weight="700">Active Projects Grid</text>
  <g font-family="Arial, sans-serif">
    <rect x="336" y="372" width="770" height="70" rx="18" fill="#0B1730"/><text x="360" y="400" fill="#FFFFFF" font-size="22">School ERP System</text><text x="360" y="426" fill="#8EA6CD" font-size="16">Client: Bright Future School | Deadline: 25 Aug | Priority: High | Progress: 72%</text>
    <text x="876" y="401" fill="#55C6FF" font-size="16">Open Project</text><text x="972" y="401" fill="#55C6FF" font-size="16">Create Task</text><text x="1060" y="401" fill="#55C6FF" font-size="16">Upload File</text>
    <rect x="336" y="456" width="770" height="70" rx="18" fill="#0B1730"/><text x="360" y="484" fill="#FFFFFF" font-size="22">Hospital CRM Upgrade</text><text x="360" y="510" fill="#8EA6CD" font-size="16">Client: MedCare Group | Deadline: 18 Jun | Priority: Medium | Progress: 48%</text>
    <rect x="336" y="540" width="770" height="56" rx="18" fill="#101D37"/><text x="360" y="574" fill="#7FB2FF" font-size="18">Hover card -> expand animation -> quick actions appear -> click redirects to project workspace</text>
  </g>

  <rect x="1154" y="308" width="422" height="316" rx="24" fill="#081225" stroke="#183259"/>
  <text x="1180" y="346" fill="#FFFFFF" font-family="Arial, sans-serif" font-size="28" font-weight="700">Right Rail Actions</text>
  <g font-family="Arial, sans-serif" font-size="20">
    <rect x="1180" y="376" width="370" height="46" rx="16" fill="#6D4AFF"/><text x="1206" y="405" fill="#FFFFFF">+ Create Project</text>
    <rect x="1180" y="434" width="370" height="46" rx="16" fill="#0D1B33"/><text x="1206" y="463" fill="#D8E6FF">+ Create Task</text>
    <rect x="1180" y="492" width="370" height="46" rx="16" fill="#0D1B33"/><text x="1206" y="521" fill="#D8E6FF">+ Schedule Meeting</text>
    <rect x="1180" y="550" width="370" height="46" rx="16" fill="#0D1B33"/><text x="1206" y="579" fill="#D8E6FF">+ Upload File / Add Sprint</text>
  </g>

  <rect x="308" y="652" width="1268" height="220" rx="24" fill="#081225" stroke="#183259"/>
  <text x="336" y="690" fill="#FFFFFF" font-family="Arial, sans-serif" font-size="28" font-weight="700">Click Map</text>
  <g font-family="Arial, sans-serif" font-size="20" fill="#AFC0DE">
    <text x="340" y="730">Dashboard login route -> /modules/manager/dashboard/dashboard.html</text>
    <text x="340" y="764">Active Projects card -> /modules/manager/projects/projects.html</text>
    <text x="340" y="798">Pending Tasks card -> /modules/manager/tasks/tasks.html</text>
    <text x="340" y="832">Team Members card -> /modules/manager/team/team.html</text>
    <text x="820" y="730">Open Project button -> /modules/manager/project-details/project-details.html?id=:projectId</text>
    <text x="820" y="764">Create button -> popup with project / task / meeting / file actions</text>
    <text x="820" y="798">Notification bell -> /modules/manager/notifications/notifications.html</text>
    <text x="820" y="832">Meetings icon -> /modules/manager/meetings/meetings.html</text>
  </g>
</svg>
