<svg width="1600" height="900" viewBox="0 0 1600 900" fill="none" xmlns="http://www.w3.org/2000/svg">
  <rect width="1600" height="900" rx="40" fill="#F4F7FF"/>
  <rect x="44" y="44" width="1512" height="812" rx="32" fill="url(#bg)"/>
  <text x="96" y="128" fill="white" font-family="Arial, sans-serif" font-size="44" font-weight="700">CRM Marketing Module Flow</text>
  <text x="96" y="168" fill="#D8E6FF" font-family="Arial, sans-serif" font-size="22">Admin creates user -> Marketing login -> Campaign flow -> Leads -> Sales handover -> Analytics</text>
  <g font-family="Arial, sans-serif">
    <rect x="96" y="236" width="210" height="118" rx="24" fill="#FFFFFF" fill-opacity="0.92"/>
    <text x="124" y="286" fill="#0F172A" font-size="26" font-weight="700">1. Login</text>
    <text x="124" y="326" fill="#475569" font-size="18">Role select + secure auth</text>
    <rect x="376" y="236" width="230" height="118" rx="24" fill="#FFFFFF" fill-opacity="0.92"/>
    <text x="404" y="286" fill="#0F172A" font-size="26" font-weight="700">2. Dashboard</text>
    <text x="404" y="326" fill="#475569" font-size="18">Cards, charts, activity panel</text>
    <rect x="676" y="236" width="238" height="118" rx="24" fill="#FFFFFF" fill-opacity="0.92"/>
    <text x="704" y="286" fill="#0F172A" font-size="26" font-weight="700">3. Campaigns</text>
    <text x="704" y="326" fill="#475569" font-size="18">Table, cards, actions</text>
    <rect x="984" y="236" width="238" height="118" rx="24" fill="#FFFFFF" fill-opacity="0.92"/>
    <text x="1012" y="286" fill="#0F172A" font-size="26" font-weight="700">4. Audience</text>
    <text x="1012" y="326" fill="#475569" font-size="18">Segment filters and groups</text>
    <rect x="1292" y="236" width="214" height="118" rx="24" fill="#FFFFFF" fill-opacity="0.92"/>
    <text x="1320" y="286" fill="#0F172A" font-size="26" font-weight="700">5. Build</text>
    <text x="1320" y="326" fill="#475569" font-size="18">Template + preview</text>

    <rect x="230" y="494" width="248" height="126" rx="24" fill="#FFFFFF" fill-opacity="0.92"/>
    <text x="260" y="548" fill="#0F172A" font-size="26" font-weight="700">6. Publish</text>
    <text x="260" y="586" fill="#475569" font-size="18">Schedule, Outlook, Teams</text>
    <rect x="540" y="494" width="250" height="126" rx="24" fill="#FFFFFF" fill-opacity="0.92"/>
    <text x="570" y="548" fill="#0F172A" font-size="26" font-weight="700">7. Leads</text>
    <text x="570" y="586" fill="#475569" font-size="18">Kanban, score, timeline</text>
    <rect x="852" y="494" width="248" height="126" rx="24" fill="#FFFFFF" fill-opacity="0.92"/>
    <text x="882" y="548" fill="#0F172A" font-size="26" font-weight="700">8. Sales</text>
    <text x="882" y="586" fill="#475569" font-size="18">Assign, follow-up, deal flow</text>
    <rect x="1162" y="494" width="248" height="126" rx="24" fill="#FFFFFF" fill-opacity="0.92"/>
    <text x="1192" y="548" fill="#0F172A" font-size="26" font-weight="700">9. Analytics</text>
    <text x="1192" y="586" fill="#475569" font-size="18">ROI, funnel, revenue</text>
  </g>
  <path d="M306 295H376" stroke="#9FB6FF" stroke-width="8" stroke-linecap="round"/>
  <path d="M606 295H676" stroke="#9FB6FF" stroke-width="8" stroke-linecap="round"/>
  <path d="M914 295H984" stroke="#9FB6FF" stroke-width="8" stroke-linecap="round"/>
  <path d="M1222 295H1292" stroke="#9FB6FF" stroke-width="8" stroke-linecap="round"/>
  <path d="M1399 354V430H354V494" stroke="#9FB6FF" stroke-width="8" stroke-linecap="round"/>
  <path d="M478 557H540" stroke="#9FB6FF" stroke-width="8" stroke-linecap="round"/>
  <path d="M790 557H852" stroke="#9FB6FF" stroke-width="8" stroke-linecap="round"/>
  <path d="M1100 557H1162" stroke="#9FB6FF" stroke-width="8" stroke-linecap="round"/>
  <defs>
    <linearGradient id="bg" x1="44" y1="44" x2="1512" y2="856" gradientUnits="userSpaceOnUse">
      <stop stop-color="#0F172A"/>
      <stop offset="0.52" stop-color="#1D4ED8"/>
      <stop offset="1" stop-color="#06B6D4"/>
    </linearGradient>
  </defs>
</svg>
